<mxfile host="app.diagrams.net" modified="2023-10-02T07:53:01.660Z" agent="Mozilla/5.0 (Windows NT 10.0; Win64; x64) AppleWebKit/537.36 (KHTML, like Gecko) Chrome/117.0.0.0 Safari/537.36" etag="z3FwvyPVLN8dyEUIbTfC" version="22.0.0" type="github">
  <diagram name="Page-1" id="OEzqkwCbrrqwPaQeRR6Q">
    <mxGraphModel dx="1114" dy="705" grid="1" gridSize="10" guides="1" tooltips="1" connect="1" arrows="1" fold="1" page="1" pageScale="1" pageWidth="827" pageHeight="1169" math="0" shadow="0">
      <root>
        <mxCell id="0" />
        <mxCell id="1" parent="0" />
        <mxCell id="gZjHHNIbcdEhtly7ocMf-1" value="alice: Person" style="html=1;whiteSpace=wrap;" parent="1" vertex="1">
          <mxGeometry x="40" y="40" width="110" height="50" as="geometry" />
        </mxCell>
        <mxCell id="gZjHHNIbcdEhtly7ocMf-2" value="aliceLetter : Letter" style="html=1;whiteSpace=wrap;" parent="1" vertex="1">
          <mxGeometry x="40" y="200" width="110" height="50" as="geometry" />
        </mxCell>
        <mxCell id="gZjHHNIbcdEhtly7ocMf-5" value="1: writeLetter()" style="endArrow=none;html=1;endSize=12;startArrow=none;startSize=14;startFill=0;edgeStyle=orthogonalEdgeStyle;align=left;verticalAlign=bottom;rounded=0;exitX=0.5;exitY=1;exitDx=0;exitDy=0;strokeColor=default;endFill=0;" parent="1" edge="1">
          <mxGeometry x="-0.0909" y="35" relative="1" as="geometry">
            <mxPoint x="94.58" y="90" as="sourcePoint" />
            <mxPoint x="94.58" y="200" as="targetPoint" />
            <mxPoint as="offset" />
          </mxGeometry>
        </mxCell>
        <mxCell id="gZjHHNIbcdEhtly7ocMf-9" value="bob : Person" style="html=1;whiteSpace=wrap;" parent="1" vertex="1">
          <mxGeometry x="827" y="200" width="110" height="50" as="geometry" />
        </mxCell>
        <mxCell id="gZjHHNIbcdEhtly7ocMf-10" value="6: pickUpLetter()&lt;br&gt;6.1: decryptLetter()&lt;br&gt;6.2: readLetter()" style="endArrow=none;html=1;endSize=12;startArrow=none;startSize=14;startFill=0;edgeStyle=orthogonalEdgeStyle;align=left;verticalAlign=bottom;rounded=0;strokeColor=default;endFill=0;entryX=0;entryY=0.5;entryDx=0;entryDy=0;" parent="1" source="gZjHHNIbcdEhtly7ocMf-24" target="gZjHHNIbcdEhtly7ocMf-9" edge="1">
          <mxGeometry x="-0.697" y="-50" relative="1" as="geometry">
            <mxPoint x="170" y="390" as="sourcePoint" />
            <mxPoint x="317" y="390" as="targetPoint" />
            <mxPoint as="offset" />
            <Array as="points">
              <mxPoint x="827" y="220" />
            </Array>
          </mxGeometry>
        </mxCell>
        <mxCell id="gZjHHNIbcdEhtly7ocMf-15" value="" style="endArrow=open;endFill=1;endSize=12;html=1;rounded=0;strokeWidth=2;" parent="1" edge="1">
          <mxGeometry width="160" relative="1" as="geometry">
            <mxPoint x="120" y="100" as="sourcePoint" />
            <mxPoint x="120" y="190" as="targetPoint" />
          </mxGeometry>
        </mxCell>
        <mxCell id="2m6DivpmdNInAure18Ki-1" value="1.1 : addressLetterTo()" style="edgeLabel;html=1;align=center;verticalAlign=middle;resizable=0;points=[];" vertex="1" connectable="0" parent="gZjHHNIbcdEhtly7ocMf-15">
          <mxGeometry x="-0.0009" y="2" relative="1" as="geometry">
            <mxPoint x="68" as="offset" />
          </mxGeometry>
        </mxCell>
        <mxCell id="2m6DivpmdNInAure18Ki-7" value="1.2: encryptLetter()" style="edgeLabel;html=1;align=center;verticalAlign=middle;resizable=0;points=[];" vertex="1" connectable="0" parent="gZjHHNIbcdEhtly7ocMf-15">
          <mxGeometry x="-0.1258" relative="1" as="geometry">
            <mxPoint x="60" y="21" as="offset" />
          </mxGeometry>
        </mxCell>
        <mxCell id="gZjHHNIbcdEhtly7ocMf-19" value="5: flagUp()" style="html=1;align=left;spacingLeft=2;endArrow=block;rounded=0;edgeStyle=orthogonalEdgeStyle;curved=0;rounded=0;exitX=0;exitY=0.25;exitDx=0;exitDy=0;" parent="1" edge="1" target="gZjHHNIbcdEhtly7ocMf-24" source="gZjHHNIbcdEhtly7ocMf-24">
          <mxGeometry x="-0.0455" y="-60" relative="1" as="geometry">
            <mxPoint x="520" y="210" as="sourcePoint" />
            <Array as="points">
              <mxPoint x="550" y="213" />
              <mxPoint x="550" y="240" />
            </Array>
            <mxPoint x="525" y="240" as="targetPoint" />
            <mxPoint as="offset" />
          </mxGeometry>
        </mxCell>
        <mxCell id="gZjHHNIbcdEhtly7ocMf-24" value="bobLetterbox : Letterbox" style="html=1;whiteSpace=wrap;" parent="1" vertex="1">
          <mxGeometry x="590" y="200" width="110" height="50" as="geometry" />
        </mxCell>
        <mxCell id="gZjHHNIbcdEhtly7ocMf-25" value="4: deliverLetter()" style="endArrow=none;html=1;endSize=12;startArrow=none;startSize=14;startFill=0;edgeStyle=orthogonalEdgeStyle;align=left;verticalAlign=bottom;rounded=0;exitX=0.5;exitY=1;exitDx=0;exitDy=0;strokeColor=default;endFill=0;" parent="1" edge="1">
          <mxGeometry x="0.2727" y="10" relative="1" as="geometry">
            <mxPoint x="640" y="90" as="sourcePoint" />
            <mxPoint x="640" y="200" as="targetPoint" />
            <mxPoint as="offset" />
          </mxGeometry>
        </mxCell>
        <mxCell id="2m6DivpmdNInAure18Ki-2" value="PostOffice" style="html=1;whiteSpace=wrap;" vertex="1" parent="1">
          <mxGeometry x="310" y="40" width="110" height="50" as="geometry" />
        </mxCell>
        <mxCell id="2m6DivpmdNInAure18Ki-3" value="Postie" style="html=1;whiteSpace=wrap;" vertex="1" parent="1">
          <mxGeometry x="590" y="40" width="110" height="50" as="geometry" />
        </mxCell>
        <mxCell id="2m6DivpmdNInAure18Ki-5" value="3: pickUpLetter()&lt;br&gt;3.1: getAddresee()" style="endArrow=none;html=1;endSize=12;startArrow=none;startSize=14;startFill=0;edgeStyle=orthogonalEdgeStyle;align=left;verticalAlign=bottom;rounded=0;exitX=1;exitY=0.5;exitDx=0;exitDy=0;strokeColor=default;endFill=0;entryX=0;entryY=0.5;entryDx=0;entryDy=0;" edge="1" parent="1" source="2m6DivpmdNInAure18Ki-2" target="2m6DivpmdNInAure18Ki-3">
          <mxGeometry x="-0.625" y="5" relative="1" as="geometry">
            <mxPoint x="180" y="380" as="sourcePoint" />
            <mxPoint x="180" y="490" as="targetPoint" />
            <mxPoint as="offset" />
          </mxGeometry>
        </mxCell>
        <mxCell id="2m6DivpmdNInAure18Ki-6" value="2: dropLetter()" style="endArrow=none;html=1;endSize=12;startArrow=none;startSize=14;startFill=0;edgeStyle=orthogonalEdgeStyle;align=left;verticalAlign=bottom;rounded=0;strokeColor=default;endFill=0;entryX=0;entryY=0.5;entryDx=0;entryDy=0;" edge="1" parent="1" source="gZjHHNIbcdEhtly7ocMf-1" target="2m6DivpmdNInAure18Ki-2">
          <mxGeometry x="-0.5294" y="5" relative="1" as="geometry">
            <mxPoint x="230" y="60" as="sourcePoint" />
            <mxPoint x="230" y="170" as="targetPoint" />
            <mxPoint as="offset" />
          </mxGeometry>
        </mxCell>
        <mxCell id="2m6DivpmdNInAure18Ki-8" value="" style="endArrow=open;endFill=1;endSize=12;html=1;rounded=0;strokeWidth=2;" edge="1" parent="1">
          <mxGeometry width="160" relative="1" as="geometry">
            <mxPoint x="170" y="80" as="sourcePoint" />
            <mxPoint x="290" y="80" as="targetPoint" />
          </mxGeometry>
        </mxCell>
        <mxCell id="2m6DivpmdNInAure18Ki-11" value="" style="endArrow=open;endFill=1;endSize=12;html=1;rounded=0;strokeWidth=2;" edge="1" parent="1">
          <mxGeometry width="160" relative="1" as="geometry">
            <mxPoint x="560" y="80" as="sourcePoint" />
            <mxPoint x="460" y="80" as="targetPoint" />
          </mxGeometry>
        </mxCell>
        <mxCell id="2m6DivpmdNInAure18Ki-12" value="" style="endArrow=open;endFill=1;endSize=12;html=1;rounded=0;strokeWidth=2;" edge="1" parent="1">
          <mxGeometry width="160" relative="1" as="geometry">
            <mxPoint x="810" y="210" as="sourcePoint" />
            <mxPoint x="710" y="210" as="targetPoint" />
          </mxGeometry>
        </mxCell>
        <mxCell id="2m6DivpmdNInAure18Ki-13" value="" style="endArrow=open;endFill=1;endSize=12;html=1;rounded=0;strokeWidth=2;" edge="1" parent="1">
          <mxGeometry width="160" relative="1" as="geometry">
            <mxPoint x="620" y="100" as="sourcePoint" />
            <mxPoint x="620" y="190" as="targetPoint" />
          </mxGeometry>
        </mxCell>
      </root>
    </mxGraphModel>
  </diagram>
</mxfile>
